<svg xmlns="http://www.w3.org/2000/svg" width="48" height="48" viewBox="0 0 48 48" fill="none">
  <path d="M38.6031 4.86682H13.4284C11.8574 4.86682 10.3507 5.4909 9.23983 6.60177C8.12896 7.71263 7.50488 9.21929 7.50488 10.7903V41.8885C7.50488 42.2813 7.6609 42.6579 7.93862 42.9357C8.21634 43.2134 8.593 43.3694 8.98575 43.3694H35.6414C36.0341 43.3694 36.4108 43.2134 36.6885 42.9357C36.9662 42.6579 37.1222 42.2813 37.1222 41.8885C37.1222 41.4958 36.9662 41.1191 36.6885 40.8414C36.4108 40.5637 36.0341 40.4077 35.6414 40.4077H10.4666C10.4666 39.6222 10.7787 38.8688 11.3341 38.3134C11.8895 37.758 12.6429 37.4459 13.4284 37.4459H38.6031C38.9959 37.4459 39.3725 37.2899 39.6502 37.0122C39.928 36.7345 40.084 36.3578 40.084 35.9651V6.34769C40.084 5.95494 39.928 5.57827 39.6502 5.30056C39.3725 5.02284 38.9959 4.86682 38.6031 4.86682ZM37.1222 34.4842H13.4284C12.3883 34.4828 11.3664 34.7568 10.4666 35.2783V10.7903C10.4666 10.0048 10.7787 9.25146 11.3341 8.69603C11.8895 8.1406 12.6429 7.82856 13.4284 7.82856H37.1222V34.4842Z" fill="#DB6221"/>
</svg>