<svg xmlns="http://www.w3.org/2000/svg" width="48" height="49" viewBox="0 0 48 49" fill="none">
  <path d="M22.0691 24.5796C22.0691 24.1402 22.1994 23.7108 22.4435 23.3455C22.6875 22.9802 23.0345 22.6955 23.4403 22.5273C23.8462 22.3592 24.2929 22.3152 24.7238 22.4009C25.1546 22.4866 25.5504 22.6982 25.8611 23.0089C26.1718 23.3195 26.3833 23.7153 26.469 24.1462C26.5547 24.5771 26.5107 25.0237 26.3426 25.4296C26.1745 25.8355 25.8898 26.1824 25.5245 26.4265C25.1592 26.6706 24.7297 26.8009 24.2904 26.8009C23.7013 26.8009 23.1363 26.5668 22.7197 26.1503C22.3031 25.7337 22.0691 25.1687 22.0691 24.5796ZM16.1456 26.8009C16.585 26.8009 17.0144 26.6706 17.3797 26.4265C17.745 26.1824 18.0297 25.8355 18.1978 25.4296C18.366 25.0237 18.41 24.5771 18.3242 24.1462C18.2385 23.7153 18.027 23.3195 17.7163 23.0089C17.4057 22.6982 17.0099 22.4866 16.579 22.4009C16.1481 22.3152 15.7015 22.3592 15.2956 22.5273C14.8897 22.6955 14.5428 22.9802 14.2987 23.3455C14.0546 23.7108 13.9243 24.1402 13.9243 24.5796C13.9243 25.1687 14.1584 25.7337 14.5749 26.1503C14.9915 26.5668 15.5565 26.8009 16.1456 26.8009ZM32.4352 26.8009C32.8745 26.8009 33.304 26.6706 33.6693 26.4265C34.0346 26.1824 34.3193 25.8355 34.4874 25.4296C34.6555 25.0237 34.6995 24.5771 34.6138 24.1462C34.5281 23.7153 34.3165 23.3195 34.0059 23.0089C33.6952 22.6982 33.2994 22.4866 32.8685 22.4009C32.4376 22.3152 31.991 22.3592 31.5851 22.5273C31.1792 22.6955 30.8323 22.9802 30.5882 23.3455C30.3442 23.7108 30.2139 24.1402 30.2139 24.5796C30.2139 25.1687 30.4479 25.7337 30.8645 26.1503C31.2811 26.5668 31.8461 26.8009 32.4352 26.8009ZM43.5417 12.7326V36.4265C43.5417 37.212 43.2296 37.9653 42.6742 38.5208C42.1188 39.0762 41.3655 39.3882 40.58 39.3882H15.9605L9.92598 44.6009L9.90932 44.6139C9.37627 45.0658 8.69971 45.3132 8.00085 45.3117C7.56578 45.3108 7.13618 45.2147 6.74211 45.0303C6.23097 44.7941 5.7986 44.4158 5.49663 43.9405C5.19466 43.4652 5.03583 42.9131 5.03911 42.35V12.7326C5.03911 11.9471 5.35115 11.1938 5.90658 10.6383C6.46202 10.0829 7.21535 9.77087 8.00085 9.77087H40.58C41.3655 9.77087 42.1188 10.0829 42.6742 10.6383C43.2296 11.1938 43.5417 11.9471 43.5417 12.7326ZM40.58 12.7326H8.00085V42.35L14.4371 36.7967C14.7046 36.5607 15.0484 36.4293 15.4052 36.4265H40.58V12.7326Z" fill="#DB6221"/>
</svg>