<svg xmlns="http://www.w3.org/2000/svg" width="50" height="42" viewBox="0 0 50 42" fill="none">
  <path d="M47.0388 39.2911C47.0388 35.0165 42.9317 31.38 37.199 30.0323M32.2791 39.2912C32.2791 33.8692 25.671 29.4739 17.5195 29.4739C9.3679 29.4739 2.75977 33.8692 2.75977 39.2912M32.2791 22.1108C37.7135 22.1108 42.1189 17.7154 42.1189 12.2935C42.1189 6.87146 37.7135 2.47607 32.2791 2.47607M17.5195 22.1108C12.0851 22.1108 7.67966 17.7154 7.67966 12.2935C7.67966 6.87146 12.0851 2.47607 17.5195 2.47607C22.9538 2.47607 27.3592 6.87146 27.3592 12.2935C27.3592 17.7154 22.9538 22.1108 17.5195 22.1108Z" stroke="#DB6221" stroke-width="4" stroke-linecap="round" stroke-linejoin="round"/>
</svg>