<svg xmlns="http://www.w3.org/2000/svg" width="48" height="48" viewBox="0 0 48 48" fill="none">
  <path d="M41.2631 29.948L32.5426 26.0404L32.5185 26.0293C32.0658 25.8357 31.572 25.758 31.0817 25.8032C30.5913 25.8484 30.1201 26.0152 29.7104 26.2884C29.6622 26.3203 29.6158 26.3549 29.5716 26.3921L25.0661 30.2331C22.2117 28.8466 19.2648 25.9219 17.8783 23.1046L21.7248 18.5305C21.7619 18.4843 21.797 18.438 21.8304 18.388C22.0977 17.9795 22.2599 17.5112 22.3025 17.0248C22.3452 16.5384 22.2669 16.0491 22.0747 15.6003V15.5781L18.156 6.84279C17.9019 6.25648 17.465 5.76808 16.9105 5.45047C16.3561 5.13287 15.7137 5.00311 15.0795 5.08055C12.5712 5.41062 10.2688 6.64244 8.60238 8.54596C6.93595 10.4495 6.01941 12.8945 6.02394 15.4244C6.02394 30.122 17.982 42.08 32.6796 42.08C35.2095 42.0846 37.6545 41.168 39.558 39.5016C41.4615 37.8352 42.6934 35.5328 43.0234 33.0245C43.101 32.3905 42.9715 31.7483 42.6543 31.1939C42.337 30.6394 41.849 30.2024 41.2631 29.948ZM32.6796 39.1183C26.3977 39.1115 20.375 36.6129 15.933 32.171C11.4911 27.729 8.99254 21.7063 8.98568 15.4244C8.97871 13.6168 9.62995 11.8685 10.8178 10.5059C12.0056 9.14335 13.6488 8.25973 15.4404 8.02008C15.4397 8.02746 15.4397 8.0349 15.4404 8.04229L19.3277 16.7424L15.5015 21.322C15.4627 21.3667 15.4274 21.4143 15.396 21.4645C15.1174 21.892 14.954 22.3841 14.9216 22.8933C14.8891 23.4025 14.9888 23.9114 15.2109 24.3707C16.888 27.8008 20.3439 31.2308 23.811 32.9061C24.2737 33.1261 24.7856 33.2223 25.2966 33.1853C25.8076 33.1483 26.3003 32.9794 26.7265 32.695C26.774 32.663 26.8197 32.6284 26.8635 32.5914L31.3634 28.7522L40.0635 32.6488C40.0635 32.6488 40.0784 32.6488 40.0839 32.6488C39.8472 34.443 38.9649 36.0894 37.6021 37.2802C36.2393 38.471 34.4893 39.1244 32.6796 39.1183Z" fill="#DB6221"/>
</svg>