<svg xmlns="http://www.w3.org/2000/svg" width="49" height="48" viewBox="0 0 49 48" fill="none">
  <path d="M42.0881 9.01428H6.54727C6.15452 9.01428 5.77786 9.1703 5.50014 9.44802C5.22243 9.72574 5.06641 10.1024 5.06641 10.4952V35.6699C5.06641 36.4554 5.37845 37.2087 5.93388 37.7642C6.48931 38.3196 7.24264 38.6316 8.02814 38.6316H40.6072C41.3927 38.6316 42.1461 38.3196 42.7015 37.7642C43.2569 37.2087 43.569 36.4554 43.569 35.6699V10.4952C43.569 10.1024 43.413 9.72574 43.1352 9.44802C42.8575 9.1703 42.4809 9.01428 42.0881 9.01428ZM24.3177 24.7763L10.355 11.976H38.2804L24.3177 24.7763ZM18.8959 23.823L8.02814 33.7837V13.8623L18.8959 23.823ZM21.0875 25.8314L23.3089 27.8768C23.5821 28.1276 23.9394 28.2668 24.3103 28.2668C24.6812 28.2668 25.0385 28.1276 25.3117 27.8768L27.533 25.8314L38.2693 35.6699H10.355L21.0875 25.8314ZM29.7395 23.823L40.6072 13.8604V33.7855L29.7395 23.823Z" fill="#DB6221"/>
</svg>