<svg xmlns="http://www.w3.org/2000/svg" width="48" height="48" viewBox="0 0 48 48" fill="none">
<g clip-path="url(#clip0_113_298)">
<path d="M46.5038 39.1183H43.542V18.3861C43.9348 18.3861 44.3115 18.2301 44.5892 17.9524C44.8669 17.6747 45.0229 17.298 45.0229 16.9053C45.0229 16.5125 44.8669 16.1358 44.5892 15.8581C44.3115 15.5804 43.9348 15.4244 43.542 15.4244H34.6568V9.50092C35.0496 9.50092 35.4262 9.3449 35.704 9.06718C35.9817 8.78947 36.1377 8.4128 36.1377 8.02005C36.1377 7.6273 35.9817 7.25064 35.704 6.97292C35.4262 6.6952 35.0496 6.53918 34.6568 6.53918H8.0012C7.60845 6.53918 7.23178 6.6952 6.95407 6.97292C6.67635 7.25064 6.52033 7.6273 6.52033 8.02005C6.52033 8.4128 6.67635 8.78947 6.95407 9.06718C7.23178 9.3449 7.60845 9.50092 8.0012 9.50092V39.1183H5.03946C4.64671 39.1183 4.27005 39.2743 3.99233 39.552C3.71461 39.8297 3.55859 40.2064 3.55859 40.5992C3.55859 40.9919 3.71461 41.3686 3.99233 41.6463C4.27005 41.924 4.64671 42.08 5.03946 42.08H46.5038C46.8965 42.08 47.2732 41.924 47.5509 41.6463C47.8286 41.3686 47.9846 40.9919 47.9846 40.5992C47.9846 40.2064 47.8286 39.8297 47.5509 39.552C47.2732 39.2743 46.8965 39.1183 46.5038 39.1183ZM40.5803 18.3861V39.1183H34.6568V18.3861H40.5803ZM10.9629 9.50092H31.6951V39.1183H27.2525V30.2331C27.2525 29.8403 27.0965 29.4637 26.8188 29.1859C26.541 28.9082 26.1644 28.7522 25.7716 28.7522H16.8864C16.4937 28.7522 16.117 28.9082 15.8393 29.1859C15.5616 29.4637 15.4055 29.8403 15.4055 30.2331V39.1183H10.9629V9.50092ZM24.2907 39.1183H18.3673V31.7139H24.2907V39.1183ZM13.9247 15.4244C13.9247 15.0316 14.0807 14.655 14.3584 14.3773C14.6361 14.0995 15.0128 13.9435 15.4055 13.9435H18.3673C18.76 13.9435 19.1367 14.0995 19.4144 14.3773C19.6921 14.655 19.8481 15.0316 19.8481 15.4244C19.8481 15.8171 19.6921 16.1938 19.4144 16.4715C19.1367 16.7492 18.76 16.9053 18.3673 16.9053H15.4055C15.0128 16.9053 14.6361 16.7492 14.3584 16.4715C14.0807 16.1938 13.9247 15.8171 13.9247 15.4244ZM22.8099 15.4244C22.8099 15.0316 22.9659 14.655 23.2436 14.3773C23.5213 14.0995 23.898 13.9435 24.2907 13.9435H27.2525C27.6452 13.9435 28.0219 14.0995 28.2996 14.3773C28.5773 14.655 28.7334 15.0316 28.7334 15.4244C28.7334 15.8171 28.5773 16.1938 28.2996 16.4715C28.0219 16.7492 27.6452 16.9053 27.2525 16.9053H24.2907C23.898 16.9053 23.5213 16.7492 23.2436 16.4715C22.9659 16.1938 22.8099 15.8171 22.8099 15.4244ZM13.9247 22.8287C13.9247 22.436 14.0807 22.0593 14.3584 21.7816C14.6361 21.5039 15.0128 21.3479 15.4055 21.3479H18.3673C18.76 21.3479 19.1367 21.5039 19.4144 21.7816C19.6921 22.0593 19.8481 22.436 19.8481 22.8287C19.8481 23.2215 19.6921 23.5982 19.4144 23.8759C19.1367 24.1536 18.76 24.3096 18.3673 24.3096H15.4055C15.0128 24.3096 14.6361 24.1536 14.3584 23.8759C14.0807 23.5982 13.9247 23.2215 13.9247 22.8287ZM22.8099 22.8287C22.8099 22.436 22.9659 22.0593 23.2436 21.7816C23.5213 21.5039 23.898 21.3479 24.2907 21.3479H27.2525C27.6452 21.3479 28.0219 21.5039 28.2996 21.7816C28.5773 22.0593 28.7334 22.436 28.7334 22.8287C28.7334 23.2215 28.5773 23.5982 28.2996 23.8759C28.0219 24.1536 27.6452 24.3096 27.2525 24.3096H24.2907C23.898 24.3096 23.5213 24.1536 23.2436 23.8759C22.9659 23.5982 22.8099 23.2215 22.8099 22.8287Z" fill="#DB6221"/>
</g>
<defs>
<clipPath id="clip0_113_298">
<rect width="47.3878" height="47.3878" fill="white" transform="translate(0.59668 0.615723)"/>
</clipPath>
</defs>
</svg>