<svg xmlns="http://www.w3.org/2000/svg" width="21.27" height="10.667" viewBox="0 0 21.27 10.667">
  <g id="Group_108" data-name="Group 108" transform="translate(0 0)">
    <g id="Group_98" data-name="Group 98" transform="translate(0 0)">
      <path id="Path_120" data-name="Path 120" d="M12.942,6.083c.012-.014.022-.029.032-.043s.025-.032.036-.049.021-.035.032-.052.019-.03.027-.046.018-.036.026-.054.016-.033.023-.05.013-.036.02-.054.014-.036.019-.055.009-.036.014-.054.01-.038.014-.057.007-.042.01-.063.006-.034.007-.051a1.181,1.181,0,0,0,0-.232c0-.018-.005-.035-.008-.053s-.005-.041-.009-.061-.01-.04-.015-.059-.008-.035-.013-.052-.013-.038-.02-.057-.012-.034-.019-.051-.016-.035-.024-.053-.016-.035-.025-.051-.019-.033-.029-.049-.019-.033-.03-.049-.026-.036-.039-.054-.019-.026-.029-.039a1.186,1.186,0,0,0-.084-.092L12.853,4.5,8.7.344A1.173,1.173,0,1,0,7.04,2L9.2,4.166H-6.889A1.173,1.173,0,0,0-8.062,5.339,1.173,1.173,0,0,0-6.889,6.513H9.2L7.051,8.664A1.173,1.173,0,1,0,8.71,10.324l4.154-4.154,0,0q.039-.04.075-.083" transform="translate(8.062 0)" fill="#fff"/>
    </g>
  </g>
</svg>
