<svg xmlns="http://www.w3.org/2000/svg" width="48" height="48" fill="none"><g clip-path="url(#clip0_113_298)"><path d="M46.504 39.118h-2.962V18.386a1.48 1.48 0 100-2.962h-8.885V9.501a1.481 1.481 0 000-2.962H8a1.48 1.48 0 100 2.962v29.617H5.04a1.48 1.48 0 100 2.962h41.465a1.48 1.48 0 000-2.962zM40.58 18.386v20.732h-5.923V18.386h5.923zM10.963 9.501h20.732v29.617h-4.442v-8.885a1.481 1.481 0 00-1.481-1.48h-8.886a1.48 1.48 0 00-1.48 1.48v8.885h-4.443V9.501zM24.29 39.118h-5.924v-7.404h5.924v7.404zM13.925 15.424a1.48 1.48 0 011.48-1.48h2.962a1.48 1.48 0 110 2.961h-2.962a1.481 1.481 0 01-1.48-1.48zm8.885 0a1.48 1.48 0 011.48-1.48h2.963a1.48 1.48 0 110 2.961H24.29a1.481 1.481 0 01-1.481-1.48zm-8.885 7.405a1.48 1.48 0 011.48-1.481h2.962a1.48 1.48 0 010 2.962h-2.962a1.48 1.48 0 01-1.48-1.481zm8.885 0a1.48 1.48 0 011.48-1.481h2.963a1.48 1.48 0 010 2.962H24.29a1.48 1.48 0 01-1.481-1.481z" fill="#DB6221"/></g><defs><clipPath id="clip0_113_298"><path fill="#fff" transform="translate(.597 .616)" d="M0 0h47.388v47.388H0z"/></clipPath></defs></svg>