<svg xmlns="http://www.w3.org/2000/svg" width="48" height="48" fill="none"><path d="M41.263 29.948l-8.72-3.908-.024-.01a2.962 2.962 0 00-2.809.258 1.508 1.508 0 00-.138.104l-4.506 3.841c-2.854-1.386-5.801-4.311-7.188-7.128l3.847-4.575a1.86 1.86 0 00.105-.142 2.962 2.962 0 00.245-2.788v-.022l-3.919-8.735A2.962 2.962 0 0015.08 5.08a10.414 10.414 0 00-9.056 10.343c0 14.698 11.958 26.656 26.656 26.656a10.414 10.414 0 0010.343-9.055 2.962 2.962 0 00-1.76-3.077zm-8.583 9.17A23.72 23.72 0 018.986 15.424 7.441 7.441 0 0115.44 8.02v.022l3.888 8.7-3.826 4.58a1.138 1.138 0 00-.106.143 2.961 2.961 0 00-.185 2.906c1.677 3.43 5.133 6.86 8.6 8.535a2.962 2.962 0 002.916-.211c.047-.032.093-.067.136-.104l4.5-3.839 8.7 3.897h.02a7.443 7.443 0 01-7.403 6.47z" fill="#DB6221"/></svg>