<svg xmlns="http://www.w3.org/2000/svg" width="48" height="49" fill="none"><path d="M22.07 24.58a2.221 2.221 0 114.441 0 2.221 2.221 0 01-4.442 0zm-5.924 2.22a2.221 2.221 0 100-4.441 2.221 2.221 0 000 4.442zm16.29 0a2.221 2.221 0 100-4.442 2.221 2.221 0 000 4.443zm11.106-14.067v23.694a2.962 2.962 0 01-2.962 2.961H15.96l-6.034 5.213-.017.013c-.533.452-1.21.7-1.908.698a2.985 2.985 0 01-2.504-1.371 2.934 2.934 0 01-.458-1.591V12.733A2.962 2.962 0 018.001 9.77H40.58a2.962 2.962 0 012.962 2.962zm-2.962 0H8V42.35l6.437-5.553a1.48 1.48 0 01.968-.37H40.58V12.732z" fill="#DB6221"/></svg>